<?xml version="1.0" encoding="UTF-8"?>
<svg xmlns="http://www.w3.org/2000/svg" viewBox="0 0 6250 4434">
  <path d="M 1286.00,2884.00 L 1284.00,2887.00 L 1285.00,2918.00 L 1291.00,2919.00 L 1292.00,2908.00 L 1295.00,2905.00 L 1299.00,2905.00 L 1303.00,2908.00 L 1305.00,2916.00 L 1308.00,2919.00 L 1312.00,2919.00 L 1313.00,2912.00 L 1309.00,2904.00 L 1309.00,2900.00 L 1313.00,2895.00 L 1312.00,2888.00 L 1309.00,2885.00 L 1302.00,2883.00 Z M 1296.00,2888.00 L 1301.00,2889.00 L 1304.00,2892.00 L 1304.00,2896.00 L 1298.00,2900.00 L 1292.00,2897.00 L 1292.00,2892.00 Z M 1295.00,2865.00 L 1278.00,2871.00 L 1269.00,2879.00 L 1263.00,2890.00 L 1262.00,2908.00 L 1266.00,2919.00 L 1276.00,2930.00 L 1289.00,2936.00 L 1300.00,2937.00 L 1317.00,2932.00 L 1327.00,2923.00 L 1332.00,2912.00 L 1334.00,2899.00 L 1331.00,2885.00 L 1321.00,2873.00 L 1307.00,2866.00 Z M 1290.00,2873.00 L 1301.00,2872.00 L 1312.00,2876.00 L 1319.00,2882.00 L 1325.00,2893.00 L 1326.00,2904.00 L 1323.00,2914.00 L 1312.00,2926.00 L 1304.00,2929.00 L 1292.00,2929.00 L 1286.00,2927.00 L 1277.00,2920.00 L 1271.00,2909.00 L 1270.00,2896.00 L 1274.00,2886.00 L 1282.00,2877.00 Z M 899.00,2612.00 L 893.00,2614.00 L 887.00,2622.00 L 885.00,2632.00 L 886.00,2658.00 L 890.00,2667.00 L 895.00,2671.00 L 910.00,2672.00 L 919.00,2666.00 L 922.00,2659.00 L 922.00,2625.00 L 921.00,2621.00 L 915.00,2614.00 L 910.00,2612.00 Z M 783.00,2612.00 L 777.00,2614.00 L 772.00,2619.00 L 769.00,2629.00 L 769.00,2654.00 L 771.00,2662.00 L 777.00,2670.00 L 782.00,2672.00 L 794.00,2672.00 L 803.00,2666.00 L 806.00,2658.00 L 806.00,2625.00 L 803.00,2618.00 L 799.00,2614.00 L 794.00,2612.00 Z M 656.00,2616.00 L 653.00,2627.00 L 655.00,2632.00 L 661.00,2637.00 L 669.00,2639.00 L 680.00,2638.00 L 690.00,2632.00 L 688.00,2620.00 L 681.00,2613.00 L 667.00,2611.00 Z M 2527.00,1793.00 L 2524.00,1798.00 L 2525.00,2354.00 L 2530.00,2395.00 L 2540.00,2437.00 L 2553.00,2471.00 L 2576.00,2511.00 L 2592.00,2531.00 L 2614.00,2552.00 L 2631.00,2565.00 L 2659.00,2582.00 L 2685.00,2594.00 L 2717.00,2605.00 L 2750.00,2613.00 L 2814.00,2621.00 L 2870.00,2622.00 L 2902.00,2620.00 L 2956.00,2613.00 L 2996.00,2603.00 L 3023.00,2593.00 L 3052.00,2579.00 L 3074.00,2565.00 L 3095.00,2548.00 L 3111.00,2532.00 L 3125.00,2515.00 L 3142.00,2488.00 L 3153.00,2466.00 L 3162.00,2442.00 L 3171.00,2408.00 L 3176.00,2375.00 L 3179.00,2336.00 L 3178.00,1795.00 L 3176.00,1793.00 L 3000.00,1794.00 L 2999.00,2324.00 L 2994.00,2367.00 L 2985.00,2393.00 L 2975.00,2410.00 L 2962.00,2425.00 L 2944.00,2438.00 L 2920.00,2448.00 L 2894.00,2454.00 L 2872.00,2456.00 L 2835.00,2456.00 L 2812.00,2454.00 L 2774.00,2444.00 L 2748.00,2429.00 L 2733.00,2414.00 L 2723.00,2399.00 L 2717.00,2387.00 L 2709.00,2357.00 L 2706.00,2320.00 L 2706.00,1796.00 L 2703.00,1793.00 Z M 1728.00,1793.00 L 1725.00,1798.00 L 1726.00,2604.00 L 1728.00,2606.00 L 1884.00,2606.00 L 1886.00,2604.00 L 1886.00,2095.00 L 1890.00,2093.00 L 1935.00,2160.00 L 2248.00,2600.00 L 2255.00,2606.00 L 2377.00,2606.00 L 2380.00,2603.00 L 2380.00,1796.00 L 2377.00,1793.00 L 2222.00,1793.00 L 2220.00,1796.00 L 2219.00,2198.00 L 2222.00,2282.00 L 2218.00,2283.00 L 1884.00,1797.00 L 1879.00,1793.00 Z M 5569.00,1770.00 L 5564.00,1780.00 L 5544.00,1842.00 L 5531.00,1876.00 L 5530.00,1883.00 L 5522.00,1902.00 L 5521.00,1909.00 L 5456.00,2094.00 L 5455.00,2101.00 L 5413.00,2218.00 L 5412.00,2225.00 L 5371.00,2340.00 L 5370.00,2347.00 L 5348.00,2407.00 L 5337.00,2443.00 L 5334.00,2447.00 L 5333.00,2454.00 L 5311.00,2514.00 L 5304.00,2539.00 L 5301.00,2543.00 L 5284.00,2597.00 L 5287.00,2599.00 L 5477.00,2598.00 L 5488.00,2565.00 L 5522.00,2443.00 L 5525.00,2438.00 L 5824.00,2438.00 L 5830.00,2447.00 L 5869.00,2587.00 L 5874.00,2598.00 L 6078.00,2598.00 L 6072.00,2576.00 L 5791.00,1772.00 L 5789.00,1770.00 Z M 5679.00,1911.00 L 5685.00,1924.00 L 5700.00,1989.00 L 5722.00,2063.00 L 5724.00,2075.00 L 5732.00,2099.00 L 5781.00,2278.00 L 5777.00,2282.00 L 5574.00,2282.00 L 5571.00,2280.00 L 5571.00,2274.00 L 5656.00,1986.00 L 5674.00,1913.00 Z M 5090.00,1795.00 L 5037.00,1780.00 L 4964.00,1771.00 L 4620.00,1771.00 L 4620.00,2598.00 L 4801.00,2599.00 L 4805.00,2596.00 L 4804.00,2336.00 L 4807.00,2329.00 L 4960.00,2328.00 L 4994.00,2325.00 L 5063.00,2311.00 L 5111.00,2293.00 L 5148.00,2271.00 L 5163.00,2259.00 L 5183.00,2238.00 L 5203.00,2210.00 L 5211.00,2196.00 L 5223.00,2166.00 L 5230.00,2142.00 L 5238.00,2094.00 L 5240.00,2056.00 L 5239.00,2021.00 L 5235.00,1984.00 L 5229.00,1954.00 L 5212.00,1905.00 L 5197.00,1878.00 L 5183.00,1859.00 L 5163.00,1838.00 L 5144.00,1823.00 L 5119.00,1808.00 Z M 4807.00,1925.00 L 4924.00,1924.00 L 4963.00,1927.00 L 4981.00,1931.00 L 4997.00,1937.00 L 5008.00,1943.00 L 5022.00,1955.00 L 5032.00,1968.00 L 5042.00,1991.00 L 5047.00,2016.00 L 5048.00,2072.00 L 5047.00,2088.00 L 5041.00,2117.00 L 5032.00,2137.00 L 5014.00,2158.00 L 5001.00,2167.00 L 4975.00,2176.00 L 4943.00,2180.00 L 4809.00,2181.00 L 4805.00,2178.00 L 4805.00,1927.00 Z M 4261.00,1770.00 L 4259.00,1773.00 L 4259.00,2596.00 L 4263.00,2599.00 L 4444.00,2599.00 L 4448.00,2597.00 L 4448.00,1772.00 L 4446.00,1770.00 Z M 3620.00,1770.00 L 3618.00,1775.00 L 3619.00,2597.00 L 3622.00,2599.00 L 4141.00,2598.00 L 4143.00,2595.00 L 4145.00,2489.00 L 4147.00,2459.00 L 4147.00,2435.00 L 4145.00,2432.00 L 3806.00,2430.00 L 3805.00,1772.00 L 3803.00,1770.00 Z M 738.00,1574.00 L 707.00,1593.00 L 670.00,1610.00 L 631.00,1623.00 L 588.00,1633.00 L 541.00,1639.00 L 485.00,1640.00 L 451.00,1637.00 L 424.00,1632.00 L 399.00,1670.00 L 366.00,1711.00 L 318.00,1757.00 L 292.00,1777.00 L 257.00,1800.00 L 271.00,1848.00 L 281.00,1906.00 L 285.00,1964.00 L 284.00,2033.00 L 278.00,2094.00 L 268.00,2156.00 L 254.00,2220.00 L 235.00,2293.00 L 225.00,2344.00 L 218.00,2400.00 L 216.00,2459.00 L 222.00,2519.00 L 228.00,2545.00 L 241.00,2581.00 L 258.00,2612.00 L 278.00,2638.00 L 302.00,2661.00 L 325.00,2678.00 L 372.00,2703.00 L 422.00,2721.00 L 463.00,2731.00 L 549.00,2745.00 L 620.00,2764.00 L 655.00,2777.00 L 686.00,2791.00 L 713.00,2806.00 L 738.00,2823.00 L 741.00,2823.00 L 758.00,2811.00 L 793.00,2791.00 L 839.00,2771.00 L 882.00,2757.00 L 921.00,2747.00 L 968.00,2738.00 L 1001.00,2734.00 L 1067.00,2718.00 L 1112.00,2701.00 L 1143.00,2685.00 L 1160.00,2674.00 L 1185.00,2654.00 L 1207.00,2631.00 L 1226.00,2604.00 L 1241.00,2574.00 L 1251.00,2545.00 L 1259.00,2507.00 L 1263.00,2463.00 L 1263.00,2432.00 L 1260.00,2387.00 L 1251.00,2327.00 L 1238.00,2267.00 L 1218.00,2190.00 L 1208.00,2139.00 L 1201.00,2091.00 L 1195.00,2023.00 L 1195.00,1949.00 L 1198.00,1912.00 L 1205.00,1864.00 L 1222.00,1800.00 L 1197.00,1784.00 L 1161.00,1757.00 L 1113.00,1711.00 L 1080.00,1670.00 L 1055.00,1632.00 L 1028.00,1637.00 L 994.00,1640.00 L 938.00,1639.00 L 891.00,1633.00 L 859.00,1626.00 L 820.00,1614.00 L 786.00,1600.00 L 754.00,1583.00 L 741.00,1574.00 Z M 886.00,2599.00 L 893.00,2597.00 L 915.00,2597.00 L 928.00,2602.00 L 936.00,2610.00 L 939.00,2616.00 L 943.00,2635.00 L 942.00,2658.00 L 936.00,2673.00 L 930.00,2680.00 L 923.00,2684.00 L 910.00,2687.00 L 891.00,2686.00 L 877.00,2679.00 L 869.00,2667.00 L 866.00,2656.00 L 866.00,2627.00 L 873.00,2609.00 Z M 767.00,2600.00 L 777.00,2597.00 L 799.00,2597.00 L 810.00,2601.00 L 820.00,2610.00 L 826.00,2628.00 L 826.00,2655.00 L 820.00,2673.00 L 809.00,2683.00 L 794.00,2687.00 L 775.00,2686.00 L 762.00,2680.00 L 754.00,2670.00 L 750.00,2657.00 L 751.00,2621.00 L 756.00,2610.00 Z M 660.00,2597.00 L 681.00,2597.00 L 692.00,2601.00 L 703.00,2611.00 L 709.00,2625.00 L 710.00,2645.00 L 705.00,2667.00 L 695.00,2679.00 L 680.00,2686.00 L 651.00,2686.00 L 644.00,2684.00 L 641.00,2681.00 L 642.00,2672.00 L 644.00,2670.00 L 654.00,2672.00 L 673.00,2672.00 L 681.00,2669.00 L 687.00,2663.00 L 691.00,2653.00 L 691.00,2648.00 L 676.00,2652.00 L 660.00,2652.00 L 651.00,2650.00 L 644.00,2646.00 L 637.00,2638.00 L 635.00,2633.00 L 635.00,2618.00 L 639.00,2609.00 L 650.00,2600.00 Z M 577.00,2598.00 L 579.00,2601.00 L 579.00,2672.00 L 594.00,2674.00 L 595.00,2684.00 L 592.00,2686.00 L 545.00,2686.00 L 542.00,2683.00 L 542.00,2676.00 L 545.00,2673.00 L 559.00,2672.00 L 559.00,2619.00 L 540.00,2627.00 L 537.00,2624.00 L 537.00,2615.00 L 564.00,2599.00 L 570.00,2597.00 Z M 969.00,1908.00 L 1158.00,1909.00 L 1156.00,1913.00 L 1100.00,1957.00 L 1100.00,2328.00 L 1157.00,2367.00 L 1156.00,2370.00 L 1012.00,2369.00 L 967.00,2338.00 L 968.00,2298.00 L 971.00,2298.00 L 1014.00,2326.00 L 1061.00,2325.00 L 1061.00,1917.00 L 1051.00,1917.00 L 1051.00,2313.00 L 1049.00,2315.00 L 1015.00,2315.00 L 967.00,2282.00 L 968.00,2243.00 L 973.00,2244.00 L 1008.00,2268.00 L 1013.00,2269.00 L 1013.00,1958.00 L 967.00,1920.00 L 967.00,1911.00 Z M 322.00,1909.00 L 466.00,1908.00 L 843.00,2158.00 L 847.00,2164.00 L 847.00,2199.00 L 843.00,2201.00 L 470.00,1953.00 L 419.00,1952.00 L 418.00,2360.00 L 428.00,2360.00 L 428.00,1965.00 L 430.00,1962.00 L 463.00,1962.00 L 841.00,2212.00 L 847.00,2218.00 L 847.00,2255.00 L 843.00,2257.00 L 471.00,2009.00 L 467.00,2008.00 L 466.00,2319.00 L 470.00,2324.00 L 508.00,2353.00 L 513.00,2359.00 L 514.00,2366.00 L 511.00,2370.00 L 322.00,2370.00 L 321.00,2367.00 L 376.00,2324.00 L 380.00,2319.00 L 380.00,1951.00 L 377.00,1947.00 L 324.00,1913.00 Z M 1007.00,1791.00 L 1008.00,1794.00 L 950.00,1841.00 L 950.00,2353.00 L 945.00,2396.00 L 939.00,2419.00 L 929.00,2443.00 L 910.00,2472.00 L 883.00,2497.00 L 860.00,2511.00 L 844.00,2518.00 L 809.00,2528.00 L 761.00,2534.00 L 706.00,2533.00 L 657.00,2525.00 L 619.00,2511.00 L 586.00,2489.00 L 570.00,2473.00 L 560.00,2460.00 L 543.00,2427.00 L 533.00,2391.00 L 530.00,2370.00 L 529.00,2336.00 L 529.00,2073.00 L 533.00,2071.00 L 562.00,2090.00 L 567.00,2095.00 L 568.00,2363.00 L 571.00,2383.00 L 577.00,2405.00 L 584.00,2422.00 L 597.00,2443.00 L 615.00,2462.00 L 637.00,2477.00 L 662.00,2488.00 L 702.00,2497.00 L 733.00,2499.00 L 777.00,2497.00 L 817.00,2488.00 L 842.00,2477.00 L 864.00,2462.00 L 878.00,2448.00 L 889.00,2433.00 L 899.00,2413.00 L 905.00,2396.00 L 911.00,2363.00 L 912.00,1801.00 L 904.00,1800.00 L 901.00,1802.00 L 900.00,2367.00 L 896.00,2390.00 L 886.00,2417.00 L 871.00,2440.00 L 851.00,2459.00 L 822.00,2475.00 L 791.00,2484.00 L 763.00,2488.00 L 716.00,2488.00 L 679.00,2482.00 L 655.00,2474.00 L 627.00,2458.00 L 605.00,2436.00 L 597.00,2424.00 L 587.00,2402.00 L 580.00,2375.00 L 578.00,2358.00 L 578.00,2105.00 L 582.00,2103.00 L 616.00,2128.00 L 616.00,2352.00 L 621.00,2381.00 L 635.00,2410.00 L 645.00,2422.00 L 665.00,2437.00 L 683.00,2445.00 L 715.00,2452.00 L 744.00,2453.00 L 772.00,2451.00 L 804.00,2442.00 L 822.00,2432.00 L 836.00,2420.00 L 852.00,2397.00 L 859.00,2378.00 L 863.00,2355.00 L 863.00,1840.00 L 810.00,1798.00 L 806.00,1792.00 Z M 473.00,1791.00 L 673.00,1792.00 L 668.00,1799.00 L 616.00,1840.00 L 615.00,1984.00 L 611.00,1984.00 L 578.00,1961.00 L 578.00,1801.00 L 567.00,1801.00 L 567.00,1952.00 L 564.00,1953.00 L 534.00,1933.00 L 529.00,1927.00 L 528.00,1839.00 L 474.00,1797.00 L 472.00,1794.00 Z M 739.00,1484.00 L 708.00,1511.00 L 675.00,1531.00 L 646.00,1544.00 L 617.00,1554.00 L 575.00,1564.00 L 525.00,1570.00 L 477.00,1569.00 L 427.00,1561.00 L 387.00,1547.00 L 383.00,1552.00 L 380.00,1562.00 L 366.00,1591.00 L 343.00,1628.00 L 316.00,1662.00 L 286.00,1692.00 L 255.00,1717.00 L 219.00,1741.00 L 163.00,1769.00 L 175.00,1788.00 L 188.00,1816.00 L 202.00,1861.00 L 212.00,1921.00 L 215.00,1967.00 L 215.00,2001.00 L 211.00,2061.00 L 202.00,2127.00 L 189.00,2190.00 L 166.00,2280.00 L 153.00,2349.00 L 148.00,2404.00 L 146.00,2405.00 L 146.00,2486.00 L 148.00,2487.00 L 153.00,2532.00 L 160.00,2562.00 L 172.00,2598.00 L 186.00,2628.00 L 208.00,2663.00 L 225.00,2684.00 L 247.00,2706.00 L 277.00,2730.00 L 322.00,2757.00 L 368.00,2777.00 L 398.00,2787.00 L 451.00,2800.00 L 549.00,2817.00 L 596.00,2830.00 L 624.00,2840.00 L 659.00,2856.00 L 688.00,2873.00 L 714.00,2893.00 L 728.00,2907.00 L 738.00,2921.00 L 741.00,2921.00 L 752.00,2906.00 L 780.00,2881.00 L 820.00,2856.00 L 848.00,2843.00 L 918.00,2820.00 L 964.00,2810.00 L 1042.00,2797.00 L 1081.00,2787.00 L 1111.00,2777.00 L 1163.00,2754.00 L 1187.00,2740.00 L 1223.00,2714.00 L 1254.00,2684.00 L 1276.00,2656.00 L 1290.00,2634.00 L 1309.00,2593.00 L 1323.00,2547.00 L 1329.00,2514.00 L 1333.00,2472.00 L 1333.00,2420.00 L 1329.00,2372.00 L 1320.00,2314.00 L 1307.00,2254.00 L 1287.00,2177.00 L 1274.00,2108.00 L 1267.00,2050.00 L 1264.00,1997.00 L 1267.00,1922.00 L 1274.00,1875.00 L 1281.00,1846.00 L 1291.00,1816.00 L 1303.00,1790.00 L 1316.00,1769.00 L 1278.00,1751.00 L 1249.00,1734.00 L 1211.00,1707.00 L 1191.00,1690.00 L 1164.00,1663.00 L 1139.00,1632.00 L 1113.00,1591.00 L 1093.00,1547.00 L 1052.00,1561.00 L 1002.00,1569.00 L 955.00,1570.00 L 904.00,1564.00 L 862.00,1554.00 L 819.00,1538.00 L 793.00,1525.00 L 771.00,1511.00 L 758.00,1501.00 L 741.00,1484.00 Z M 738.00,1543.00 L 741.00,1543.00 L 776.00,1566.00 L 819.00,1586.00 L 858.00,1599.00 L 888.00,1606.00 L 930.00,1612.00 L 977.00,1614.00 L 1019.00,1612.00 L 1069.00,1603.00 L 1097.00,1649.00 L 1136.00,1698.00 L 1159.00,1721.00 L 1191.00,1748.00 L 1213.00,1764.00 L 1254.00,1789.00 L 1239.00,1832.00 L 1226.00,1898.00 L 1222.00,1935.00 L 1220.00,1986.00 L 1222.00,2044.00 L 1226.00,2086.00 L 1236.00,2150.00 L 1249.00,2209.00 L 1265.00,2267.00 L 1281.00,2345.00 L 1287.00,2393.00 L 1289.00,2428.00 L 1288.00,2484.00 L 1284.00,2516.00 L 1278.00,2545.00 L 1265.00,2584.00 L 1248.00,2618.00 L 1232.00,2641.00 L 1222.00,2653.00 L 1187.00,2686.00 L 1148.00,2712.00 L 1113.00,2729.00 L 1078.00,2742.00 L 1029.00,2755.00 L 964.00,2765.00 L 915.00,2775.00 L 849.00,2795.00 L 809.00,2812.00 L 786.00,2824.00 L 763.00,2838.00 L 741.00,2855.00 L 738.00,2855.00 L 716.00,2838.00 L 682.00,2818.00 L 630.00,2795.00 L 564.00,2775.00 L 521.00,2766.00 L 450.00,2755.00 L 401.00,2742.00 L 357.00,2725.00 L 326.00,2709.00 L 300.00,2692.00 L 280.00,2676.00 L 251.00,2646.00 L 235.00,2624.00 L 218.00,2593.00 L 208.00,2568.00 L 198.00,2532.00 L 192.00,2493.00 L 190.00,2464.00 L 191.00,2405.00 L 198.00,2346.00 L 208.00,2293.00 L 234.00,2193.00 L 244.00,2145.00 L 253.00,2086.00 L 258.00,2025.00 L 258.00,1954.00 L 253.00,1897.00 L 240.00,1832.00 L 225.00,1789.00 L 266.00,1764.00 L 292.00,1745.00 L 317.00,1724.00 L 343.00,1698.00 L 378.00,1655.00 L 410.00,1603.00 L 460.00,1612.00 L 496.00,1614.00 L 549.00,1612.00 L 591.00,1606.00 L 621.00,1599.00 L 660.00,1586.00 L 703.00,1566.00 L 725.00,1553.00 Z" fill="#32408d" fill-rule="evenodd"/>
  <path d="M 1296.00,2889.00 L 1293.00,2892.00 L 1293.00,2897.00 L 1296.00,2899.00 L 1301.00,2898.00 L 1303.00,2896.00 L 1303.00,2892.00 Z M 1290.00,2874.00 L 1282.00,2878.00 L 1275.00,2886.00 L 1271.00,2896.00 L 1272.00,2909.00 L 1278.00,2920.00 L 1286.00,2926.00 L 1292.00,2928.00 L 1304.00,2928.00 L 1312.00,2925.00 L 1322.00,2914.00 L 1325.00,2904.00 L 1324.00,2893.00 L 1321.00,2886.00 L 1312.00,2877.00 L 1301.00,2873.00 Z M 1286.00,2883.00 L 1302.00,2882.00 L 1309.00,2884.00 L 1313.00,2888.00 L 1314.00,2895.00 L 1310.00,2900.00 L 1310.00,2904.00 L 1314.00,2912.00 L 1314.00,2918.00 L 1312.00,2920.00 L 1308.00,2920.00 L 1304.00,2916.00 L 1302.00,2908.00 L 1299.00,2906.00 L 1295.00,2906.00 L 1293.00,2908.00 L 1293.00,2918.00 L 1291.00,2920.00 L 1286.00,2920.00 L 1284.00,2918.00 L 1283.00,2887.00 Z M 886.00,2600.00 L 874.00,2609.00 L 867.00,2627.00 L 867.00,2656.00 L 870.00,2667.00 L 877.00,2678.00 L 891.00,2685.00 L 910.00,2686.00 L 923.00,2683.00 L 930.00,2679.00 L 935.00,2673.00 L 941.00,2658.00 L 942.00,2635.00 L 938.00,2616.00 L 935.00,2610.00 L 928.00,2603.00 L 915.00,2598.00 L 893.00,2598.00 Z M 899.00,2611.00 L 910.00,2611.00 L 915.00,2613.00 L 920.00,2618.00 L 923.00,2625.00 L 923.00,2659.00 L 920.00,2666.00 L 910.00,2673.00 L 895.00,2672.00 L 889.00,2667.00 L 885.00,2658.00 L 884.00,2632.00 L 886.00,2622.00 L 893.00,2613.00 Z M 767.00,2601.00 L 757.00,2610.00 L 752.00,2621.00 L 751.00,2657.00 L 755.00,2670.00 L 762.00,2679.00 L 775.00,2685.00 L 794.00,2686.00 L 809.00,2682.00 L 819.00,2673.00 L 825.00,2655.00 L 825.00,2628.00 L 819.00,2610.00 L 810.00,2602.00 L 799.00,2598.00 L 777.00,2598.00 Z M 783.00,2611.00 L 794.00,2611.00 L 799.00,2613.00 L 804.00,2618.00 L 807.00,2625.00 L 807.00,2658.00 L 804.00,2666.00 L 794.00,2673.00 L 782.00,2673.00 L 777.00,2671.00 L 772.00,2666.00 L 768.00,2654.00 L 768.00,2629.00 L 771.00,2619.00 L 777.00,2613.00 Z M 660.00,2598.00 L 650.00,2601.00 L 640.00,2609.00 L 636.00,2618.00 L 636.00,2633.00 L 638.00,2638.00 L 644.00,2645.00 L 651.00,2649.00 L 660.00,2651.00 L 676.00,2651.00 L 691.00,2647.00 L 692.00,2653.00 L 688.00,2663.00 L 681.00,2670.00 L 673.00,2673.00 L 654.00,2673.00 L 644.00,2671.00 L 642.00,2681.00 L 651.00,2685.00 L 680.00,2685.00 L 695.00,2678.00 L 704.00,2667.00 L 709.00,2645.00 L 708.00,2625.00 L 702.00,2611.00 L 692.00,2602.00 L 681.00,2598.00 Z M 652.00,2623.00 L 658.00,2613.00 L 667.00,2610.00 L 675.00,2610.00 L 683.00,2613.00 L 688.00,2618.00 L 691.00,2626.00 L 691.00,2632.00 L 687.00,2636.00 L 680.00,2639.00 L 664.00,2639.00 L 659.00,2637.00 L 654.00,2632.00 Z M 577.00,2599.00 L 572.00,2598.00 L 564.00,2600.00 L 538.00,2615.00 L 538.00,2624.00 L 540.00,2626.00 L 543.00,2626.00 L 556.00,2618.00 L 560.00,2619.00 L 560.00,2672.00 L 558.00,2674.00 L 545.00,2674.00 L 543.00,2676.00 L 543.00,2683.00 L 545.00,2685.00 L 594.00,2684.00 L 594.00,2675.00 L 580.00,2674.00 L 578.00,2672.00 Z M 969.00,1909.00 L 968.00,1920.00 L 1014.00,1958.00 L 1014.00,2269.00 L 1008.00,2269.00 L 971.00,2244.00 L 968.00,2244.00 L 968.00,2251.00 L 1018.00,2285.00 L 1021.00,2285.00 L 1021.00,1953.00 L 984.00,1924.00 L 979.00,1917.00 L 1132.00,1916.00 L 1133.00,1919.00 L 1091.00,1954.00 L 1091.00,2332.00 L 1127.00,2356.00 L 1128.00,2360.00 L 1016.00,2361.00 L 971.00,2331.00 L 968.00,2331.00 L 968.00,2338.00 L 1012.00,2368.00 L 1156.00,2369.00 L 1154.00,2365.00 L 1099.00,2328.00 L 1099.00,1957.00 L 1156.00,1912.00 L 1157.00,1909.00 Z M 323.00,1909.00 L 324.00,1912.00 L 377.00,1946.00 L 381.00,1951.00 L 381.00,2319.00 L 376.00,2325.00 L 324.00,2365.00 L 322.00,2369.00 L 511.00,2369.00 L 513.00,2366.00 L 512.00,2359.00 L 508.00,2354.00 L 470.00,2325.00 L 465.00,2319.00 L 465.00,2009.00 L 467.00,2007.00 L 471.00,2008.00 L 843.00,2256.00 L 846.00,2255.00 L 845.00,2248.00 L 466.00,1996.00 L 458.00,1993.00 L 458.00,2324.00 L 497.00,2355.00 L 500.00,2360.00 L 347.00,2361.00 L 346.00,2358.00 L 388.00,2324.00 L 388.00,1945.00 L 350.00,1919.00 L 351.00,1916.00 L 463.00,1916.00 L 842.00,2168.00 L 845.00,2168.00 L 846.00,2164.00 L 843.00,2159.00 L 466.00,1909.00 Z M 1007.00,1792.00 L 807.00,1792.00 L 810.00,1797.00 L 864.00,1840.00 L 864.00,2355.00 L 860.00,2378.00 L 853.00,2397.00 L 837.00,2420.00 L 822.00,2433.00 L 804.00,2443.00 L 772.00,2452.00 L 744.00,2454.00 L 715.00,2453.00 L 693.00,2449.00 L 665.00,2438.00 L 645.00,2423.00 L 634.00,2410.00 L 622.00,2387.00 L 616.00,2363.00 L 615.00,2128.00 L 611.00,2124.00 L 607.00,2123.00 L 607.00,2348.00 L 613.00,2384.00 L 617.00,2395.00 L 629.00,2416.00 L 646.00,2434.00 L 668.00,2448.00 L 687.00,2455.00 L 719.00,2461.00 L 760.00,2461.00 L 780.00,2458.00 L 804.00,2451.00 L 828.00,2438.00 L 848.00,2419.00 L 862.00,2395.00 L 869.00,2372.00 L 872.00,2349.00 L 872.00,1837.00 L 832.00,1805.00 L 830.00,1801.00 L 832.00,1799.00 L 982.00,1799.00 L 984.00,1801.00 L 983.00,1804.00 L 947.00,1831.00 L 941.00,1838.00 L 941.00,2361.00 L 938.00,2387.00 L 929.00,2422.00 L 913.00,2454.00 L 904.00,2466.00 L 885.00,2485.00 L 861.00,2501.00 L 826.00,2515.00 L 781.00,2524.00 L 741.00,2526.00 L 698.00,2524.00 L 664.00,2518.00 L 626.00,2505.00 L 594.00,2485.00 L 575.00,2466.00 L 560.00,2444.00 L 553.00,2429.00 L 546.00,2409.00 L 540.00,2381.00 L 538.00,2362.00 L 538.00,2076.00 L 533.00,2072.00 L 530.00,2073.00 L 530.00,2336.00 L 531.00,2370.00 L 534.00,2391.00 L 544.00,2427.00 L 561.00,2460.00 L 586.00,2488.00 L 619.00,2510.00 L 657.00,2524.00 L 706.00,2532.00 L 761.00,2533.00 L 809.00,2527.00 L 844.00,2517.00 L 860.00,2510.00 L 883.00,2496.00 L 909.00,2472.00 L 928.00,2443.00 L 938.00,2419.00 L 944.00,2396.00 L 949.00,2353.00 L 949.00,1841.00 L 952.00,1837.00 L 1005.00,1796.00 Z M 473.00,1792.00 L 474.00,1796.00 L 526.00,1836.00 L 530.00,1841.00 L 530.00,1927.00 L 534.00,1932.00 L 538.00,1931.00 L 538.00,1838.00 L 532.00,1831.00 L 496.00,1804.00 L 495.00,1801.00 L 497.00,1799.00 L 648.00,1799.00 L 650.00,1801.00 L 649.00,1804.00 L 607.00,1837.00 L 607.00,1980.00 L 611.00,1983.00 L 615.00,1983.00 L 615.00,1840.00 L 668.00,1798.00 L 672.00,1792.00 Z M 738.00,1544.00 L 710.00,1563.00 L 674.00,1581.00 L 631.00,1597.00 L 591.00,1607.00 L 549.00,1613.00 L 496.00,1615.00 L 460.00,1613.00 L 410.00,1604.00 L 395.00,1631.00 L 379.00,1655.00 L 344.00,1698.00 L 317.00,1725.00 L 292.00,1746.00 L 266.00,1765.00 L 226.00,1789.00 L 241.00,1832.00 L 254.00,1897.00 L 259.00,1954.00 L 259.00,2025.00 L 254.00,2086.00 L 245.00,2145.00 L 235.00,2193.00 L 209.00,2293.00 L 199.00,2346.00 L 192.00,2405.00 L 191.00,2464.00 L 193.00,2493.00 L 199.00,2532.00 L 209.00,2568.00 L 219.00,2593.00 L 236.00,2624.00 L 252.00,2646.00 L 280.00,2675.00 L 300.00,2691.00 L 326.00,2708.00 L 357.00,2724.00 L 401.00,2741.00 L 450.00,2754.00 L 521.00,2765.00 L 564.00,2774.00 L 630.00,2794.00 L 682.00,2817.00 L 716.00,2837.00 L 738.00,2854.00 L 741.00,2854.00 L 763.00,2837.00 L 786.00,2823.00 L 809.00,2811.00 L 849.00,2794.00 L 915.00,2774.00 L 964.00,2764.00 L 1029.00,2754.00 L 1078.00,2741.00 L 1113.00,2728.00 L 1148.00,2711.00 L 1187.00,2685.00 L 1199.00,2675.00 L 1231.00,2641.00 L 1247.00,2618.00 L 1264.00,2584.00 L 1277.00,2545.00 L 1283.00,2516.00 L 1287.00,2484.00 L 1288.00,2428.00 L 1286.00,2393.00 L 1280.00,2345.00 L 1270.00,2293.00 L 1248.00,2209.00 L 1235.00,2150.00 L 1225.00,2086.00 L 1221.00,2044.00 L 1219.00,1986.00 L 1221.00,1935.00 L 1225.00,1898.00 L 1238.00,1832.00 L 1253.00,1789.00 L 1213.00,1765.00 L 1191.00,1749.00 L 1159.00,1722.00 L 1135.00,1698.00 L 1096.00,1649.00 L 1069.00,1604.00 L 1019.00,1613.00 L 977.00,1615.00 L 930.00,1613.00 L 888.00,1607.00 L 858.00,1600.00 L 819.00,1587.00 L 776.00,1567.00 L 741.00,1544.00 Z M 738.00,1573.00 L 741.00,1573.00 L 754.00,1582.00 L 786.00,1599.00 L 820.00,1613.00 L 859.00,1625.00 L 891.00,1632.00 L 938.00,1638.00 L 994.00,1639.00 L 1028.00,1636.00 L 1055.00,1631.00 L 1081.00,1670.00 L 1114.00,1711.00 L 1161.00,1756.00 L 1223.00,1800.00 L 1209.00,1850.00 L 1199.00,1912.00 L 1196.00,1949.00 L 1196.00,2023.00 L 1202.00,2091.00 L 1209.00,2139.00 L 1219.00,2190.00 L 1239.00,2267.00 L 1252.00,2327.00 L 1261.00,2387.00 L 1264.00,2432.00 L 1264.00,2463.00 L 1260.00,2507.00 L 1252.00,2545.00 L 1242.00,2574.00 L 1227.00,2604.00 L 1208.00,2631.00 L 1185.00,2655.00 L 1160.00,2675.00 L 1143.00,2686.00 L 1112.00,2702.00 L 1067.00,2719.00 L 1001.00,2735.00 L 968.00,2739.00 L 921.00,2748.00 L 882.00,2758.00 L 839.00,2772.00 L 793.00,2792.00 L 758.00,2812.00 L 741.00,2824.00 L 738.00,2824.00 L 726.00,2815.00 L 686.00,2792.00 L 655.00,2778.00 L 620.00,2765.00 L 549.00,2746.00 L 463.00,2732.00 L 422.00,2722.00 L 372.00,2704.00 L 325.00,2679.00 L 302.00,2662.00 L 277.00,2638.00 L 257.00,2612.00 L 247.00,2595.00 L 231.00,2558.00 L 224.00,2533.00 L 218.00,2499.00 L 215.00,2459.00 L 217.00,2400.00 L 224.00,2344.00 L 234.00,2293.00 L 253.00,2220.00 L 267.00,2156.00 L 277.00,2094.00 L 283.00,2033.00 L 284.00,1964.00 L 280.00,1906.00 L 270.00,1848.00 L 256.00,1800.00 L 292.00,1776.00 L 318.00,1756.00 L 365.00,1711.00 L 398.00,1670.00 L 424.00,1631.00 L 451.00,1636.00 L 485.00,1639.00 L 541.00,1638.00 L 588.00,1632.00 L 631.00,1622.00 L 670.00,1609.00 L 707.00,1592.00 Z" fill="#ffffff" fill-rule="evenodd"/>
  <path d="M 430.00,1963.00 L 429.00,2360.00 L 499.00,2360.00 L 497.00,2356.00 L 457.00,2324.00 L 458.00,1992.00 L 466.00,1995.00 L 843.00,2246.00 L 846.00,2246.00 L 846.00,2218.00 L 841.00,2213.00 L 463.00,1963.00 Z M 1062.00,1917.00 L 1062.00,2325.00 L 1059.00,2327.00 L 1014.00,2327.00 L 971.00,2299.00 L 968.00,2299.00 L 968.00,2330.00 L 971.00,2330.00 L 1016.00,2360.00 L 1127.00,2360.00 L 1127.00,2357.00 L 1095.00,2337.00 L 1090.00,2332.00 L 1090.00,1954.00 L 1103.00,1942.00 L 1130.00,1922.00 L 1132.00,1917.00 Z M 980.00,1917.00 L 984.00,1923.00 L 1022.00,1953.00 L 1022.00,2285.00 L 1018.00,2286.00 L 970.00,2253.00 L 968.00,2253.00 L 968.00,2282.00 L 1015.00,2314.00 L 1049.00,2314.00 L 1050.00,1917.00 Z M 351.00,1917.00 L 353.00,1921.00 L 389.00,1945.00 L 389.00,2324.00 L 349.00,2356.00 L 347.00,2360.00 L 417.00,2360.00 L 417.00,1953.00 L 419.00,1951.00 L 470.00,1952.00 L 841.00,2199.00 L 846.00,2199.00 L 845.00,2170.00 L 463.00,1917.00 Z M 982.00,1800.00 L 913.00,1801.00 L 912.00,2363.00 L 906.00,2396.00 L 895.00,2424.00 L 879.00,2448.00 L 864.00,2463.00 L 852.00,2472.00 L 825.00,2486.00 L 795.00,2495.00 L 749.00,2500.00 L 702.00,2498.00 L 662.00,2489.00 L 637.00,2478.00 L 615.00,2463.00 L 596.00,2443.00 L 583.00,2422.00 L 576.00,2405.00 L 570.00,2383.00 L 567.00,2363.00 L 566.00,2095.00 L 547.00,2081.00 L 539.00,2078.00 L 539.00,2362.00 L 542.00,2387.00 L 552.00,2424.00 L 561.00,2444.00 L 570.00,2458.00 L 594.00,2484.00 L 620.00,2501.00 L 653.00,2514.00 L 698.00,2523.00 L 741.00,2525.00 L 770.00,2524.00 L 801.00,2520.00 L 838.00,2510.00 L 871.00,2494.00 L 885.00,2484.00 L 903.00,2466.00 L 918.00,2444.00 L 931.00,2413.00 L 937.00,2387.00 L 940.00,2361.00 L 940.00,1838.00 L 947.00,1830.00 L 983.00,1803.00 Z M 898.00,1800.00 L 831.00,1801.00 L 832.00,1804.00 L 873.00,1837.00 L 873.00,2349.00 L 870.00,2372.00 L 863.00,2395.00 L 849.00,2419.00 L 832.00,2436.00 L 811.00,2449.00 L 780.00,2459.00 L 760.00,2462.00 L 719.00,2462.00 L 687.00,2456.00 L 668.00,2449.00 L 651.00,2439.00 L 631.00,2420.00 L 622.00,2407.00 L 613.00,2387.00 L 609.00,2372.00 L 606.00,2348.00 L 606.00,2121.00 L 582.00,2104.00 L 579.00,2105.00 L 579.00,2358.00 L 584.00,2389.00 L 591.00,2410.00 L 601.00,2429.00 L 610.00,2441.00 L 622.00,2453.00 L 639.00,2465.00 L 668.00,2478.00 L 693.00,2484.00 L 716.00,2487.00 L 763.00,2487.00 L 786.00,2484.00 L 814.00,2477.00 L 835.00,2468.00 L 857.00,2453.00 L 870.00,2440.00 L 878.00,2429.00 L 892.00,2400.00 L 898.00,2375.00 L 900.00,2356.00 L 900.00,1801.00 Z M 648.00,1800.00 L 579.00,1801.00 L 579.00,1961.00 L 603.00,1978.00 L 606.00,1978.00 L 606.00,1837.00 L 649.00,1803.00 Z M 497.00,1800.00 L 496.00,1803.00 L 532.00,1830.00 L 539.00,1838.00 L 538.00,1934.00 L 562.00,1951.00 L 566.00,1952.00 L 566.00,1801.00 Z" fill="#ffd41c" fill-rule="evenodd"/>
</svg>
